PathFileType	4	(X/Y/Z)	Patient4_TMGait_0pt2_02_left_18.trc.trc
DataRate	CameraRate	NumFrames	NumMarkers	Units	OrigDataRate	OrigDataStartFrame	OrigNumFrames
46.979865771812	46.979865771812	4	33	mm	46.979865771812	53	       141
Frame#	Time	R.Midfoot.Superior			Sacral			L.Shoulder			Chest			R.Shoulder			Neck			R.ASIS			L.ASIS			R.Thigh.Superior			R.Thigh.Lateral			R.Thigh.Inferior			R.Patella			L.Thigh.Superior			L.Thigh.Lateral			L.Thigh.Inferior			L.Patella			L.Shank.Superior			L.Shank.Lateral			L.Shank.Inferior			R.Shank.Superior			R.Shank.Lateral			R.Shank.Inferior			R.Heel			R.Midfoot.Lateral			R.Toe			L.Heel			L.Midfoot.Lateral			L.Midfoot.Superior			L.Toe			L.Elbow			L.Wrist			R.Elbow			R.Wrist			
		X1	Y1	Z1	X2	Y2	Z2	X3	Y3	Z3	X4	Y4	Z4	X5	Y5	Z5	X6	Y6	Z6	X7	Y7	Z7	X8	Y8	Z8	X9	Y9	Z9	X10	Y10	Z10	X11	Y11	Z11	X12	Y12	Z12	X13	Y13	Z13	X14	Y14	Z14	X15	Y15	Z15	X16	Y16	Z16	X17	Y17	Z17	X18	Y18	Z18	X19	Y19	Z19	X20	Y20	Z20	X21	Y21	Z21	X22	Y22	Z22	X23	Y23	Z23	X24	Y24	Z24	X25	Y25	Z25	X26	Y26	Z26	X27	Y27	Z27	X28	Y28	Z28	X29	Y29	Z29	X30	Y30	Z30	X31	Y31	Z31	X32	Y32	Z32	X33	Y33	Z33	

53	42.096857142857	963.916527624004	145.570556325428	590.585491977885	908.279894174537	996.143500854431	415.676589647465	1063.133130225479	1424.804187739394	214.256500514314	1176.864803507178	1360.798506226583	369.549444889249	1105.757779596587	1437.477918152056	545.923879233136	1052.837409342521	1490.052112148488	371.029093795322	1144.850108998458	937.804477385435	519.405909872271	1115.630479288893	956.383178723630	246.904774968678	1203.321088267189	744.435928248775	493.001711542390	1142.975458434573	631.450111030043	568.142786349061	1222.641061195609	577.210809504708	487.835727577444	1224.155667921483	466.108427380883	512.892548103786	1183.539877669200	755.038725594941	285.051330133176	1109.365461258917	625.945166729119	230.186747417637	1201.597968500549	560.978802242865	295.371375368823	1208.190246455566	489.241611502624	305.989630263587	1177.831878733250	412.437175753677	301.892851307322	1083.929252140651	299.863826064231	254.890443436755	1129.352100115988	189.995147483382	330.425352528001	1143.612446111062	401.493381064611	530.519132819190	1024.610559464016	373.637615814334	601.619186033363	1002.077756628136	262.178168349509	561.285395306609	796.874565966958	206.780708179256	547.858059188291	856.025637191355	152.192083481868	624.779131492173	1025.657222654978	38.486202221236	624.606780228049	994.518700935682	38.508233940729	374.690419712903	1067.328833655131	35.306937372449	293.009161809569	1150.292208495332	97.371671379372	319.288403096161	1277.985781015343	49.364087533365	289.192338587409	1105.468492078134	1077.279640004585	89.608426282906	1232.051869206793	849.114816112343	96.430958021567	1197.298118137828	1095.459234771874	656.968105359226	1399.951840248933	936.267577526489	637.134746768507	
54	42.118142857143	970.179758565589	151.237234341973	588.000218544975	907.971381533305	992.937182892867	412.147851218804	1062.605215494324	1423.687912984948	213.671662700585	1174.898766207954	1359.516642512424	369.907492981822	1101.612223018864	1434.479935597862	546.221610087237	1050.879653849371	1488.163143666312	370.762171488360	1144.748512426715	936.147278621352	516.931081486063	1116.774763682176	955.329372741058	244.279821847743	1209.779519990877	746.424045957776	488.417239660884	1154.426138199615	631.596881423445	563.997288820753	1235.308686701202	579.750530383381	482.859862261209	1239.702055324945	467.441000939866	508.360415617301	1185.992084194242	753.853269922728	283.084650098624	1112.672322538418	624.162277764280	228.751357255473	1204.704112950657	559.602596970301	295.097462791478	1211.512201038420	487.518501148479	305.969858839905	1179.721462326113	410.470851075117	301.915155310298	1084.369948324073	299.232961057612	254.521834615624	1127.208172217694	188.911699584250	330.678749338986	1157.587962976708	402.673561458496	526.538545411338	1036.925170337012	378.357776401423	597.048784548481	1011.641185527391	266.941665836883	557.902601098618	804.612755248092	218.019088345594	543.798431196361	861.686550751810	161.773025927853	621.498299550713	1028.295161358754	40.336923064716	623.449392555115	990.267483392964	38.540941842521	374.636961713021	1063.109159047597	35.339319254225	292.997681244370	1146.210161851408	97.233790269931	319.507666533656	1273.805446866157	49.123198466483	289.237633022660	1116.587137570797	1078.751556829747	86.764600691561	1255.932221232382	858.174650183017	93.999225075696	1175.621649663908	1086.920066922378	656.769244811058	1361.029012140911	907.274387469389	641.410964135844	
55	42.139428571429	978.466624813958	155.498231534375	585.601217018368	907.843972415114	989.841291894390	408.837874722263	1062.272608698722	1422.735480911968	213.471673855503	1173.061244758908	1358.297235791137	370.641572934107	1097.491125655314	1431.445550834580	546.847607345705	1049.036484683491	1486.344942558989	370.892210321984	1144.759024149550	934.598444807669	514.726164695998	1118.107531752813	954.375607479210	241.900806189911	1215.463219330399	748.282970981389	484.384256896154	1164.637358061030	632.029868109426	560.502452017660	1246.420817954567	582.348701218521	478.537208119774	1253.601773179136	469.216982538198	504.429364290271	1188.418879737751	752.652220587786	281.404943060738	1115.810403154833	622.408991156700	227.518266129271	1207.553849647931	558.192147510045	295.014652630230	1214.521038302398	485.773367825997	306.135507092938	1181.345666433309	408.537600196018	302.061260125502	1084.595934092104	298.619532705107	254.260524216098	1124.972934575208	187.855450934250	330.941577395226	1170.569461926835	403.950509559672	523.142445303261	1048.678733001288	381.861751316044	593.054148716661	1021.852428538633	270.351808896905	554.890308628390	813.661408356454	225.159116818212	540.154966714220	869.502036551503	168.254520067844	618.554048217822	1034.573071924525	42.165723039299	622.347185801099	986.013320090528	38.576672539708	374.581718067800	1058.893013857030	35.372103555719	292.982752845043	1142.134376105972	97.093242468702	319.721104241731	1269.634302848502	48.857291558138	289.282494161834	1127.393470631052	1080.861746260726	84.180952763101	1279.501277455883	868.805938677404	91.915388238631	1153.517868950258	1079.596796980567	656.889617328364	1319.834333583352	881.543668133714	645.194730818992	
56	42.160714285714	989.090885430838	157.959201776743	583.582172055979	907.870273391338	987.026938180763	405.710615738339	1062.300932697370	1422.054521731054	213.626223613469	1171.440512954888	1357.223716830041	371.758640586886	1093.442645426242	1428.526188993654	547.754789636970	1047.415529851190	1484.720006034552	371.370357372291	1144.795533787385	933.277613062627	512.843052593491	1119.617305582384	953.593664239827	239.814888501180	1220.225259830170	750.015703886599	481.068996889680	1173.317943860432	632.755536411380	557.798012485739	1255.743849259635	584.947928307763	475.068844414060	1265.581259137979	471.421212105884	501.337588828646	1190.672751932365	751.475627547264	280.026627914996	1118.564384594370	620.775729940431	226.466570894137	1209.904003923692	556.792712249901	295.053774194374	1216.939531121887	484.074749862031	306.417218700084	1182.484202927933	406.714588991016	302.270871859558	1084.441780710473	298.042298985296	254.077139122542	1122.569714412017	186.865131954530	331.184834284989	1182.373775372720	405.285349757194	520.525946853763	1059.752160255250	383.892044819711	589.847390139409	1032.813354805811	272.121009787660	552.445615665372	824.262394542131	227.518847645824	537.116414787177	879.781611315984	171.024751798366	616.123627662045	1044.998559205970	43.746886574914	621.459751076521	981.754694382955	38.612463966549	374.526243945374	1054.677764894557	35.402384197580	292.963553558902	1138.056350260929	96.953247414988	319.915744889345	1265.469243320961	48.574025762009	289.323285677096	1137.986719027336	1083.684816029303	81.810089428027	1302.625440722990	881.001742450896	90.164991883928	1131.156952729806	1073.712603392821	657.309325772556	1277.105754715737	859.588285578946	648.468500421156	
